<mxfile host="app.diagrams.net" modified="2024-05-05T03:37:25.885Z" agent="Mozilla/5.0 (X11; Linux x86_64) AppleWebKit/537.36 (KHTML, like Gecko) Chrome/122.0.0.0 Safari/537.36" etag="w-hi4ZocT-E_tWFhWueH" version="24.3.1" type="device">
  <diagram name="Page-1" id="kqHMZfuuE0xXcqHqCBbC">
    <mxGraphModel dx="1364" dy="1859" grid="1" gridSize="10" guides="1" tooltips="1" connect="1" arrows="1" fold="1" page="1" pageScale="1" pageWidth="850" pageHeight="1100" math="0" shadow="0">
      <root>
        <mxCell id="0" />
        <mxCell id="1" parent="0" />
        <mxCell id="nylxycaKdVDgag3TmVcl-1" value="&lt;font style=&quot;font-size: 15px;&quot;&gt;USER_ACCOUNT&lt;/font&gt;" style="text;html=1;align=center;verticalAlign=middle;resizable=0;points=[];autosize=1;strokeColor=none;fillColor=none;" parent="1" vertex="1">
          <mxGeometry x="355" y="1" width="150" height="30" as="geometry" />
        </mxCell>
        <mxCell id="nylxycaKdVDgag3TmVcl-2" value="&lt;font style=&quot;font-size: 15px;&quot;&gt;&lt;u&gt;Id&lt;/u&gt;&lt;/font&gt;" style="rounded=0;whiteSpace=wrap;html=1;" parent="1" vertex="1">
          <mxGeometry x="370" y="31" width="40" height="30" as="geometry" />
        </mxCell>
        <mxCell id="nylxycaKdVDgag3TmVcl-3" value="&lt;font style=&quot;font-size: 15px;&quot;&gt;First_Name&lt;/font&gt;" style="rounded=0;whiteSpace=wrap;html=1;" parent="1" vertex="1">
          <mxGeometry x="410" y="31" width="90" height="30" as="geometry" />
        </mxCell>
        <mxCell id="nylxycaKdVDgag3TmVcl-4" value="&lt;font style=&quot;font-size: 15px;&quot;&gt;Last_Name&lt;/font&gt;" style="rounded=0;whiteSpace=wrap;html=1;" parent="1" vertex="1">
          <mxGeometry x="500" y="31" width="90" height="30" as="geometry" />
        </mxCell>
        <mxCell id="nylxycaKdVDgag3TmVcl-5" value="&lt;font style=&quot;font-size: 15px;&quot;&gt;Username&lt;/font&gt;" style="rounded=0;whiteSpace=wrap;html=1;" parent="1" vertex="1">
          <mxGeometry x="660" y="31" width="90" height="30" as="geometry" />
        </mxCell>
        <mxCell id="nylxycaKdVDgag3TmVcl-6" value="&lt;font style=&quot;font-size: 15px;&quot;&gt;Password&lt;/font&gt;" style="rounded=0;whiteSpace=wrap;html=1;" parent="1" vertex="1">
          <mxGeometry x="750" y="31" width="90" height="30" as="geometry" />
        </mxCell>
        <mxCell id="nylxycaKdVDgag3TmVcl-7" value="&lt;font style=&quot;font-size: 15px;&quot;&gt;PURCHASE&lt;/font&gt;" style="text;html=1;align=center;verticalAlign=middle;resizable=0;points=[];autosize=1;strokeColor=none;fillColor=none;" parent="1" vertex="1">
          <mxGeometry x="355" y="250" width="110" height="30" as="geometry" />
        </mxCell>
        <mxCell id="nylxycaKdVDgag3TmVcl-8" value="&lt;font style=&quot;font-size: 15px;&quot;&gt;SUBSCRIPTION&lt;/font&gt;" style="text;html=1;align=center;verticalAlign=middle;resizable=0;points=[];autosize=1;strokeColor=none;fillColor=none;" parent="1" vertex="1">
          <mxGeometry x="355" y="370" width="140" height="30" as="geometry" />
        </mxCell>
        <mxCell id="nylxycaKdVDgag3TmVcl-9" value="&lt;font style=&quot;font-size: 15px;&quot;&gt;LABEL&lt;/font&gt;" style="text;html=1;align=center;verticalAlign=middle;resizable=0;points=[];autosize=1;strokeColor=none;fillColor=none;" parent="1" vertex="1">
          <mxGeometry x="356" y="500" width="70" height="30" as="geometry" />
        </mxCell>
        <mxCell id="nylxycaKdVDgag3TmVcl-10" value="&lt;font style=&quot;font-size: 15px;&quot;&gt;&lt;u&gt;Id&lt;/u&gt;&lt;/font&gt;" style="rounded=0;whiteSpace=wrap;html=1;" parent="1" vertex="1">
          <mxGeometry x="370" y="280" width="40" height="30" as="geometry" />
        </mxCell>
        <mxCell id="nylxycaKdVDgag3TmVcl-11" value="&lt;font style=&quot;font-size: 15px;&quot;&gt;Name&lt;/font&gt;" style="rounded=0;whiteSpace=wrap;html=1;" parent="1" vertex="1">
          <mxGeometry x="410" y="280" width="60" height="30" as="geometry" />
        </mxCell>
        <mxCell id="nylxycaKdVDgag3TmVcl-12" value="&lt;font style=&quot;font-size: 15px;&quot;&gt;Description&lt;/font&gt;" style="rounded=0;whiteSpace=wrap;html=1;" parent="1" vertex="1">
          <mxGeometry x="470" y="280" width="90" height="30" as="geometry" />
        </mxCell>
        <mxCell id="nylxycaKdVDgag3TmVcl-13" value="&lt;font style=&quot;font-size: 15px;&quot;&gt;Cost&lt;/font&gt;" style="rounded=0;whiteSpace=wrap;html=1;" parent="1" vertex="1">
          <mxGeometry x="560" y="280" width="50" height="30" as="geometry" />
        </mxCell>
        <mxCell id="nylxycaKdVDgag3TmVcl-14" value="&lt;font style=&quot;font-size: 15px;&quot;&gt;Date&lt;/font&gt;" style="rounded=0;whiteSpace=wrap;html=1;" parent="1" vertex="1">
          <mxGeometry x="610" y="280" width="50" height="30" as="geometry" />
        </mxCell>
        <mxCell id="nylxycaKdVDgag3TmVcl-15" value="&lt;font style=&quot;font-size: 15px;&quot;&gt;&lt;u&gt;Id&lt;/u&gt;&lt;/font&gt;" style="rounded=0;whiteSpace=wrap;html=1;" parent="1" vertex="1">
          <mxGeometry x="369" y="530" width="60" height="30" as="geometry" />
        </mxCell>
        <mxCell id="nylxycaKdVDgag3TmVcl-17" value="&lt;font style=&quot;font-size: 15px;&quot;&gt;Name&lt;/font&gt;" style="rounded=0;whiteSpace=wrap;html=1;" parent="1" vertex="1">
          <mxGeometry x="429" y="530" width="69" height="30" as="geometry" />
        </mxCell>
        <mxCell id="nylxycaKdVDgag3TmVcl-18" value="&lt;font style=&quot;font-size: 15px;&quot;&gt;&lt;u&gt;Id&lt;/u&gt;&lt;/font&gt;" style="rounded=0;whiteSpace=wrap;html=1;" parent="1" vertex="1">
          <mxGeometry x="370" y="400" width="40" height="30" as="geometry" />
        </mxCell>
        <mxCell id="nylxycaKdVDgag3TmVcl-19" value="&lt;font style=&quot;font-size: 15px;&quot;&gt;Name&lt;/font&gt;" style="rounded=0;whiteSpace=wrap;html=1;" parent="1" vertex="1">
          <mxGeometry x="410" y="400" width="60" height="30" as="geometry" />
        </mxCell>
        <mxCell id="nylxycaKdVDgag3TmVcl-20" value="&lt;font style=&quot;font-size: 15px;&quot;&gt;Description&lt;/font&gt;" style="rounded=0;whiteSpace=wrap;html=1;" parent="1" vertex="1">
          <mxGeometry x="470" y="400" width="90" height="30" as="geometry" />
        </mxCell>
        <mxCell id="nylxycaKdVDgag3TmVcl-21" value="&lt;font style=&quot;font-size: 15px;&quot;&gt;Cost&lt;/font&gt;" style="rounded=0;whiteSpace=wrap;html=1;" parent="1" vertex="1">
          <mxGeometry x="560" y="400" width="50" height="30" as="geometry" />
        </mxCell>
        <mxCell id="nylxycaKdVDgag3TmVcl-22" value="&lt;font style=&quot;font-size: 15px;&quot;&gt;Start_Date&lt;/font&gt;" style="rounded=0;whiteSpace=wrap;html=1;" parent="1" vertex="1">
          <mxGeometry x="610" y="400" width="100" height="30" as="geometry" />
        </mxCell>
        <mxCell id="nylxycaKdVDgag3TmVcl-23" value="&lt;font style=&quot;font-size: 15px;&quot;&gt;Days_Btwn_Purchases&lt;/font&gt;" style="rounded=0;whiteSpace=wrap;html=1;" parent="1" vertex="1">
          <mxGeometry x="710" y="400" width="180" height="30" as="geometry" />
        </mxCell>
        <mxCell id="nylxycaKdVDgag3TmVcl-24" value="&lt;font style=&quot;font-size: 15px;&quot;&gt;Is_Active&lt;/font&gt;" style="rounded=0;whiteSpace=wrap;html=1;" parent="1" vertex="1">
          <mxGeometry x="890" y="400" width="80" height="30" as="geometry" />
        </mxCell>
        <mxCell id="nylxycaKdVDgag3TmVcl-27" style="edgeStyle=orthogonalEdgeStyle;rounded=0;orthogonalLoop=1;jettySize=auto;html=1;entryX=0;entryY=0.25;entryDx=0;entryDy=0;" parent="1" source="nylxycaKdVDgag3TmVcl-26" target="nylxycaKdVDgag3TmVcl-2" edge="1">
          <mxGeometry relative="1" as="geometry">
            <Array as="points">
              <mxPoint x="1010" y="-10" />
              <mxPoint x="320" y="-10" />
              <mxPoint x="320" y="39" />
            </Array>
            <mxPoint x="280" y="180" as="targetPoint" />
          </mxGeometry>
        </mxCell>
        <mxCell id="nylxycaKdVDgag3TmVcl-26" value="&lt;span style=&quot;font-size: 15px;&quot;&gt;User_Id&lt;/span&gt;" style="rounded=0;whiteSpace=wrap;html=1;" parent="1" vertex="1">
          <mxGeometry x="970" y="400" width="80" height="30" as="geometry" />
        </mxCell>
        <mxCell id="nylxycaKdVDgag3TmVcl-29" style="edgeStyle=orthogonalEdgeStyle;rounded=0;orthogonalLoop=1;jettySize=auto;html=1;entryX=0.25;entryY=1;entryDx=0;entryDy=0;" parent="1" source="nylxycaKdVDgag3TmVcl-28" target="nylxycaKdVDgag3TmVcl-2" edge="1">
          <mxGeometry relative="1" as="geometry">
            <Array as="points">
              <mxPoint x="695" y="240" />
              <mxPoint x="350" y="240" />
              <mxPoint x="350" y="110" />
              <mxPoint x="380" y="110" />
            </Array>
            <mxPoint x="140" y="170" as="targetPoint" />
          </mxGeometry>
        </mxCell>
        <mxCell id="nylxycaKdVDgag3TmVcl-28" value="&lt;font style=&quot;font-size: 15px;&quot;&gt;User_Id&lt;/font&gt;" style="rounded=0;whiteSpace=wrap;html=1;" parent="1" vertex="1">
          <mxGeometry x="660" y="280" width="80" height="30" as="geometry" />
        </mxCell>
        <mxCell id="dD6gyU4jowULJm8gkE_H-1" style="edgeStyle=orthogonalEdgeStyle;rounded=0;orthogonalLoop=1;jettySize=auto;html=1;exitX=0;exitY=0.5;exitDx=0;exitDy=0;entryX=0.75;entryY=1;entryDx=0;entryDy=0;" parent="1" source="nylxycaKdVDgag3TmVcl-32" target="nylxycaKdVDgag3TmVcl-15" edge="1">
          <mxGeometry relative="1" as="geometry">
            <Array as="points">
              <mxPoint x="350" y="685" />
              <mxPoint x="350" y="600" />
              <mxPoint x="414" y="600" />
            </Array>
          </mxGeometry>
        </mxCell>
        <mxCell id="nylxycaKdVDgag3TmVcl-30" value="&lt;span style=&quot;font-size: 15px;&quot;&gt;PURCHASE_LABELS&lt;/span&gt;" style="text;html=1;align=center;verticalAlign=middle;resizable=0;points=[];autosize=1;strokeColor=none;fillColor=none;" parent="1" vertex="1">
          <mxGeometry x="359" y="640" width="170" height="30" as="geometry" />
        </mxCell>
        <mxCell id="nylxycaKdVDgag3TmVcl-31" value="&lt;span style=&quot;font-size: 15px;&quot;&gt;SUBSCRIPTION_LABELS&lt;/span&gt;" style="text;html=1;align=center;verticalAlign=middle;resizable=0;points=[];autosize=1;strokeColor=none;fillColor=none;" parent="1" vertex="1">
          <mxGeometry x="358" y="770" width="200" height="30" as="geometry" />
        </mxCell>
        <mxCell id="nylxycaKdVDgag3TmVcl-32" value="&lt;font style=&quot;font-size: 15px;&quot;&gt;&lt;u&gt;Label_Id&lt;/u&gt;&lt;/font&gt;" style="rounded=0;whiteSpace=wrap;html=1;" parent="1" vertex="1">
          <mxGeometry x="370" y="670" width="100" height="30" as="geometry" />
        </mxCell>
        <mxCell id="nylxycaKdVDgag3TmVcl-38" style="edgeStyle=orthogonalEdgeStyle;rounded=0;orthogonalLoop=1;jettySize=auto;html=1;entryX=0.5;entryY=1;entryDx=0;entryDy=0;exitX=1;exitY=0.5;exitDx=0;exitDy=0;" parent="1" source="nylxycaKdVDgag3TmVcl-33" target="nylxycaKdVDgag3TmVcl-10" edge="1">
          <mxGeometry relative="1" as="geometry">
            <Array as="points">
              <mxPoint x="700" y="685" />
              <mxPoint x="700" y="470" />
              <mxPoint x="350" y="470" />
              <mxPoint x="350" y="330" />
              <mxPoint x="390" y="330" />
            </Array>
          </mxGeometry>
        </mxCell>
        <mxCell id="nylxycaKdVDgag3TmVcl-33" value="&lt;span style=&quot;font-size: 15px;&quot;&gt;&lt;u&gt;Purchase_Id&lt;/u&gt;&lt;/span&gt;" style="rounded=0;whiteSpace=wrap;html=1;" parent="1" vertex="1">
          <mxGeometry x="470" y="670" width="100" height="30" as="geometry" />
        </mxCell>
        <mxCell id="dD6gyU4jowULJm8gkE_H-2" style="edgeStyle=orthogonalEdgeStyle;rounded=0;orthogonalLoop=1;jettySize=auto;html=1;entryX=0.25;entryY=1;entryDx=0;entryDy=0;" parent="1" source="nylxycaKdVDgag3TmVcl-34" target="nylxycaKdVDgag3TmVcl-15" edge="1">
          <mxGeometry relative="1" as="geometry">
            <Array as="points">
              <mxPoint x="330" y="815" />
              <mxPoint x="330" y="580" />
              <mxPoint x="384" y="580" />
            </Array>
          </mxGeometry>
        </mxCell>
        <mxCell id="nylxycaKdVDgag3TmVcl-34" value="&lt;font style=&quot;font-size: 15px;&quot;&gt;&lt;u&gt;Label_Id&lt;/u&gt;&lt;/font&gt;" style="rounded=0;whiteSpace=wrap;html=1;" parent="1" vertex="1">
          <mxGeometry x="370" y="800" width="100" height="30" as="geometry" />
        </mxCell>
        <mxCell id="nylxycaKdVDgag3TmVcl-39" style="edgeStyle=orthogonalEdgeStyle;rounded=0;orthogonalLoop=1;jettySize=auto;html=1;entryX=0.5;entryY=1;entryDx=0;entryDy=0;" parent="1" source="nylxycaKdVDgag3TmVcl-35" target="nylxycaKdVDgag3TmVcl-18" edge="1">
          <mxGeometry relative="1" as="geometry">
            <Array as="points">
              <mxPoint x="720" y="815" />
              <mxPoint x="720" y="450" />
              <mxPoint x="390" y="450" />
            </Array>
          </mxGeometry>
        </mxCell>
        <mxCell id="nylxycaKdVDgag3TmVcl-35" value="&lt;font style=&quot;font-size: 15px;&quot;&gt;&lt;u&gt;Subscription_Id&lt;/u&gt;&lt;/font&gt;" style="rounded=0;whiteSpace=wrap;html=1;" parent="1" vertex="1">
          <mxGeometry x="470" y="800" width="120" height="30" as="geometry" />
        </mxCell>
        <mxCell id="InWCFX0hxfMqQEda26e6-1" value="&lt;font style=&quot;font-size: 15px;&quot;&gt;Description&lt;/font&gt;" style="rounded=0;whiteSpace=wrap;html=1;" parent="1" vertex="1">
          <mxGeometry x="498" y="530" width="99" height="30" as="geometry" />
        </mxCell>
        <mxCell id="InWCFX0hxfMqQEda26e6-3" style="edgeStyle=orthogonalEdgeStyle;rounded=0;orthogonalLoop=1;jettySize=auto;html=1;entryX=0;entryY=0.75;entryDx=0;entryDy=0;" parent="1" source="InWCFX0hxfMqQEda26e6-2" target="nylxycaKdVDgag3TmVcl-2" edge="1">
          <mxGeometry relative="1" as="geometry">
            <Array as="points">
              <mxPoint x="639" y="490" />
              <mxPoint x="330" y="490" />
              <mxPoint x="330" y="54" />
            </Array>
            <mxPoint x="330" y="70" as="targetPoint" />
          </mxGeometry>
        </mxCell>
        <mxCell id="InWCFX0hxfMqQEda26e6-2" value="&lt;font style=&quot;font-size: 15px;&quot;&gt;User_Id&lt;/font&gt;" style="rounded=0;whiteSpace=wrap;html=1;" parent="1" vertex="1">
          <mxGeometry x="597" y="530" width="80" height="30" as="geometry" />
        </mxCell>
        <mxCell id="InWCFX0hxfMqQEda26e6-4" value="&lt;font style=&quot;font-size: 15px;&quot;&gt;Email&lt;/font&gt;" style="rounded=0;whiteSpace=wrap;html=1;" parent="1" vertex="1">
          <mxGeometry x="590" y="31" width="70" height="30" as="geometry" />
        </mxCell>
        <mxCell id="c5QupsHV5Zfeoi0BTcWX-4" value="&lt;span style=&quot;font-size: 15px;&quot;&gt;USER_SESSION&lt;/span&gt;" style="text;html=1;align=center;verticalAlign=middle;resizable=0;points=[];autosize=1;strokeColor=none;fillColor=none;" vertex="1" parent="1">
          <mxGeometry x="358" y="121" width="140" height="30" as="geometry" />
        </mxCell>
        <mxCell id="c5QupsHV5Zfeoi0BTcWX-5" value="&lt;span style=&quot;font-size: 15px;&quot;&gt;PERMISSION&lt;/span&gt;" style="text;html=1;align=center;verticalAlign=middle;resizable=0;points=[];autosize=1;strokeColor=none;fillColor=none;" vertex="1" parent="1">
          <mxGeometry x="360" y="900" width="120" height="30" as="geometry" />
        </mxCell>
        <mxCell id="c5QupsHV5Zfeoi0BTcWX-6" value="&lt;span style=&quot;font-size: 15px;&quot;&gt;USER_PERMISSIONS&lt;/span&gt;" style="text;html=1;align=center;verticalAlign=middle;resizable=0;points=[];autosize=1;strokeColor=none;fillColor=none;" vertex="1" parent="1">
          <mxGeometry x="360" y="1016" width="180" height="30" as="geometry" />
        </mxCell>
        <mxCell id="c5QupsHV5Zfeoi0BTcWX-7" value="&lt;font style=&quot;font-size: 15px;&quot;&gt;&lt;u&gt;Id&lt;/u&gt;&lt;/font&gt;" style="rounded=0;whiteSpace=wrap;html=1;" vertex="1" parent="1">
          <mxGeometry x="371" y="151" width="52" height="30" as="geometry" />
        </mxCell>
        <mxCell id="c5QupsHV5Zfeoi0BTcWX-8" value="&lt;font style=&quot;font-size: 15px;&quot;&gt;Expires_At&lt;/font&gt;" style="rounded=0;whiteSpace=wrap;html=1;" vertex="1" parent="1">
          <mxGeometry x="423" y="151" width="104" height="30" as="geometry" />
        </mxCell>
        <mxCell id="c5QupsHV5Zfeoi0BTcWX-13" style="edgeStyle=orthogonalEdgeStyle;rounded=0;orthogonalLoop=1;jettySize=auto;html=1;entryX=0.75;entryY=1;entryDx=0;entryDy=0;" edge="1" parent="1" source="c5QupsHV5Zfeoi0BTcWX-9" target="nylxycaKdVDgag3TmVcl-2">
          <mxGeometry relative="1" as="geometry">
            <mxPoint x="520" y="80" as="targetPoint" />
            <Array as="points">
              <mxPoint x="570" y="110" />
              <mxPoint x="400" y="110" />
            </Array>
          </mxGeometry>
        </mxCell>
        <mxCell id="c5QupsHV5Zfeoi0BTcWX-9" value="&lt;font style=&quot;font-size: 15px;&quot;&gt;User_Id&lt;/font&gt;" style="rounded=0;whiteSpace=wrap;html=1;" vertex="1" parent="1">
          <mxGeometry x="528" y="151" width="90" height="30" as="geometry" />
        </mxCell>
        <mxCell id="c5QupsHV5Zfeoi0BTcWX-10" value="&lt;font style=&quot;font-size: 15px;&quot;&gt;&lt;u&gt;Id&lt;/u&gt;&lt;/font&gt;" style="rounded=0;whiteSpace=wrap;html=1;" vertex="1" parent="1">
          <mxGeometry x="373" y="930" width="52" height="30" as="geometry" />
        </mxCell>
        <mxCell id="c5QupsHV5Zfeoi0BTcWX-11" value="&lt;font style=&quot;font-size: 15px;&quot;&gt;Name&lt;/font&gt;" style="rounded=0;whiteSpace=wrap;html=1;" vertex="1" parent="1">
          <mxGeometry x="425" y="930" width="64" height="30" as="geometry" />
        </mxCell>
        <mxCell id="c5QupsHV5Zfeoi0BTcWX-17" style="edgeStyle=orthogonalEdgeStyle;rounded=0;orthogonalLoop=1;jettySize=auto;html=1;entryX=0;entryY=0.5;entryDx=0;entryDy=0;" edge="1" parent="1" source="c5QupsHV5Zfeoi0BTcWX-15" target="c5QupsHV5Zfeoi0BTcWX-10">
          <mxGeometry relative="1" as="geometry">
            <Array as="points">
              <mxPoint x="353" y="1063" />
              <mxPoint x="353" y="945" />
            </Array>
          </mxGeometry>
        </mxCell>
        <mxCell id="c5QupsHV5Zfeoi0BTcWX-15" value="&lt;font style=&quot;font-size: 15px;&quot;&gt;&lt;u&gt;Permission_Id&lt;/u&gt;&lt;/font&gt;" style="rounded=0;whiteSpace=wrap;html=1;" vertex="1" parent="1">
          <mxGeometry x="373" y="1048" width="127" height="30" as="geometry" />
        </mxCell>
        <mxCell id="c5QupsHV5Zfeoi0BTcWX-18" style="edgeStyle=orthogonalEdgeStyle;rounded=0;orthogonalLoop=1;jettySize=auto;html=1;entryX=0;entryY=0.5;entryDx=0;entryDy=0;" edge="1" parent="1" source="c5QupsHV5Zfeoi0BTcWX-16" target="nylxycaKdVDgag3TmVcl-2">
          <mxGeometry relative="1" as="geometry">
            <mxPoint x="290" y="30" as="targetPoint" />
            <Array as="points">
              <mxPoint x="600" y="1063" />
              <mxPoint x="600" y="890" />
              <mxPoint x="310" y="890" />
              <mxPoint x="310" y="46" />
            </Array>
          </mxGeometry>
        </mxCell>
        <mxCell id="c5QupsHV5Zfeoi0BTcWX-16" value="&lt;font style=&quot;font-size: 15px;&quot;&gt;&lt;u&gt;User_Id&lt;/u&gt;&lt;/font&gt;" style="rounded=0;whiteSpace=wrap;html=1;" vertex="1" parent="1">
          <mxGeometry x="501" y="1048" width="74" height="30" as="geometry" />
        </mxCell>
        <mxCell id="c5QupsHV5Zfeoi0BTcWX-19" value="&lt;font style=&quot;font-size: 15px;&quot;&gt;Description&lt;/font&gt;" style="rounded=0;whiteSpace=wrap;html=1;" vertex="1" parent="1">
          <mxGeometry x="489.5" y="930" width="91" height="30" as="geometry" />
        </mxCell>
        <mxCell id="c5QupsHV5Zfeoi0BTcWX-22" value="&lt;font style=&quot;font-size: 15px;&quot;&gt;Is_Locked&lt;/font&gt;" style="rounded=0;whiteSpace=wrap;html=1;" vertex="1" parent="1">
          <mxGeometry x="840" y="31" width="90" height="30" as="geometry" />
        </mxCell>
      </root>
    </mxGraphModel>
  </diagram>
</mxfile>
